REM DIRINDEX 1\2\4,1\2\5,1\3\6,1\3\7
REM DIRNAME cjc099,folder01,folder02,folder03,folder04,folder05,folder06
TITLE ""
FILE "bunpo2_04.mp3" MP3
  TRACK 01 AUDIO
    TITLE "7:cjc099_326"
    INDEX 01 00:00:00
  TRACK 02 AUDIO
    TITLE "0:"
    INDEX 01 00:01:40
  TRACK 03 AUDIO
    TITLE "7:cjc099_327"
    INDEX 01 00:02:02
  TRACK 04 AUDIO
    TITLE "0:"
    INDEX 01 00:03:31
  TRACK 05 AUDIO
    TITLE "6:cjc099_328"
    INDEX 01 00:03:51
  TRACK 06 AUDIO
    TITLE "0:"
    INDEX 01 00:09:59
  TRACK 07 AUDIO
    TITLE "5:cjc099_329"
    INDEX 01 00:10:29
  TRACK 08 AUDIO
    TITLE "0:"
    INDEX 01 00:11:50
  TRACK 09 AUDIO
    TITLE "4:cjc099_330"
    INDEX 01 00:11:72
  TRACK 10 AUDIO
    TITLE "0:"
    INDEX 01 00:18:27
  TRACK 11 AUDIO
    TITLE "7:cjc099_331"
    INDEX 01 00:19:69
  TRACK 12 AUDIO
    TITLE "0:"
    INDEX 01 00:21:06
  TRACK 13 AUDIO
    TITLE "6:cjc099_332"
    INDEX 01 00:21:21
  TRACK 14 AUDIO
    TITLE "0:"
    INDEX 01 00:27:00
  TRACK 15 AUDIO
    TITLE "5:cjc099_333"
    INDEX 01 00:27:43
  TRACK 16 AUDIO
    TITLE "0:"
    INDEX 01 00:28:62
  TRACK 17 AUDIO
    TITLE "4:cjc099_334"
    INDEX 01 00:29:09
  TRACK 18 AUDIO
    TITLE "0:"
    INDEX 01 00:34:61
  TRACK 19 AUDIO
    TITLE "7:cjc099_335"
    INDEX 01 00:36:31
  TRACK 20 AUDIO
    TITLE "0:"
    INDEX 01 00:37:54
  TRACK 21 AUDIO
    TITLE "6:cjc099_336"
    INDEX 01 00:37:73
  TRACK 22 AUDIO
    TITLE "0:"
    INDEX 01 00:44:14
  TRACK 23 AUDIO
    TITLE "5:cjc099_337"
    INDEX 01 00:44:60
  TRACK 24 AUDIO
    TITLE "0:"
    INDEX 01 00:46:06
  TRACK 25 AUDIO
    TITLE "4:cjc099_338"
    INDEX 01 00:46:27
  TRACK 26 AUDIO
    TITLE "0:"
    INDEX 01 00:52:37
  TRACK 27 AUDIO
    TITLE "7:cjc099_339"
    INDEX 01 00:54:07
  TRACK 28 AUDIO
    TITLE "0:"
    INDEX 01 00:55:30
  TRACK 29 AUDIO
    TITLE "6:cjc099_340"
    INDEX 01 00:55:44
  TRACK 30 AUDIO
    TITLE "0:"
    INDEX 01 01:02:40
  TRACK 31 AUDIO
    TITLE "5:cjc099_341"
    INDEX 01 01:03:08
  TRACK 32 AUDIO
    TITLE "0:"
    INDEX 01 01:04:27
  TRACK 33 AUDIO
    TITLE "4:cjc099_342"
    INDEX 01 01:04:47
  TRACK 34 AUDIO
    TITLE "0:"
    INDEX 01 01:11:15
  TRACK 35 AUDIO
    TITLE "7:cjc099_343"
    INDEX 01 01:12:62
  TRACK 36 AUDIO
    TITLE "0:"
    INDEX 01 01:14:17
  TRACK 37 AUDIO
    TITLE "6:cjc099_344"
    INDEX 01 01:14:31
  TRACK 38 AUDIO
    TITLE "0:"
    INDEX 01 01:22:05
  TRACK 39 AUDIO
    TITLE "5:cjc099_345"
    INDEX 01 01:22:48
  TRACK 40 AUDIO
    TITLE "0:"
    INDEX 01 01:23:69
  TRACK 41 AUDIO
    TITLE "4:cjc099_346"
    INDEX 01 01:24:10
  TRACK 42 AUDIO
    TITLE "0:"
    INDEX 01 01:31:63
  TRACK 43 AUDIO
    TITLE "7:cjc099_347"
    INDEX 01 01:33:36
  TRACK 44 AUDIO
    TITLE "0:"
    INDEX 01 01:34:69
  TRACK 45 AUDIO
    TITLE "6:cjc099_348"
    INDEX 01 01:35:16
  TRACK 46 AUDIO
    TITLE "0:"
    INDEX 01 01:41:42
  TRACK 47 AUDIO
    TITLE "5:cjc099_349"
    INDEX 01 01:42:14
  TRACK 48 AUDIO
    TITLE "0:"
    INDEX 01 01:43:39
  TRACK 49 AUDIO
    TITLE "4:cjc099_350"
    INDEX 01 01:43:62
  TRACK 50 AUDIO
    TITLE "0:"
    INDEX 01 01:49:55
  TRACK 51 AUDIO
    TITLE "7:cjc099_351"
    INDEX 01 01:51:19
  TRACK 52 AUDIO
    TITLE "0:"
    INDEX 01 01:52:48
  TRACK 53 AUDIO
    TITLE "6:cjc099_352"
    INDEX 01 01:52:63
  TRACK 54 AUDIO
    TITLE "0:"
    INDEX 01 02:00:00
  TRACK 55 AUDIO
    TITLE "5:cjc099_353"
    INDEX 01 02:00:43
  TRACK 56 AUDIO
    TITLE "0:"
    INDEX 01 02:01:66
  TRACK 57 AUDIO
    TITLE "4:cjc099_354"
    INDEX 01 02:02:11
  TRACK 58 AUDIO
    TITLE "0:"
    INDEX 01 02:09:30
  TRACK 59 AUDIO
    TITLE "7:cjc099_355"
    INDEX 01 02:10:73
  TRACK 60 AUDIO
    TITLE "0:"
    INDEX 01 02:12:21
  TRACK 61 AUDIO
    TITLE "6:cjc099_356"
    INDEX 01 02:12:35
  TRACK 62 AUDIO
    TITLE "0:"
    INDEX 01 02:17:55
  TRACK 63 AUDIO
    TITLE "5:cjc099_357"
    INDEX 01 02:18:23
  TRACK 64 AUDIO
    TITLE "0:"
    INDEX 01 02:19:44
  TRACK 65 AUDIO
    TITLE "4:cjc099_358"
    INDEX 01 02:19:64
  TRACK 66 AUDIO
    TITLE "0:"
    INDEX 01 02:25:12
  TRACK 67 AUDIO
    TITLE "7:cjc099_359"
    INDEX 01 02:26:56
  TRACK 68 AUDIO
    TITLE "0:"
    INDEX 01 02:28:06
  TRACK 69 AUDIO
    TITLE "6:cjc099_360"
    INDEX 01 02:28:22
  TRACK 70 AUDIO
    TITLE "0:"
    INDEX 01 02:34:20
  TRACK 71 AUDIO
    TITLE "5:cjc099_361"
    INDEX 01 02:34:64
  TRACK 72 AUDIO
    TITLE "0:"
    INDEX 01 02:36:12
  TRACK 73 AUDIO
    TITLE "4:cjc099_362"
    INDEX 01 02:36:29
  TRACK 74 AUDIO
    TITLE "0:"
    INDEX 01 02:42:40
  TRACK 75 AUDIO
    TITLE "7:cjc099_363"
    INDEX 01 02:44:05
  TRACK 76 AUDIO
    TITLE "0:"
    INDEX 01 02:45:24
  TRACK 77 AUDIO
    TITLE "6:cjc099_364"
    INDEX 01 02:45:40
  TRACK 78 AUDIO
    TITLE "0:"
    INDEX 01 02:52:07
  TRACK 79 AUDIO
    TITLE "5:cjc099_365"
    INDEX 01 02:52:52
  TRACK 80 AUDIO
    TITLE "0:"
    INDEX 01 02:53:69
  TRACK 81 AUDIO
    TITLE "4:cjc099_366"
    INDEX 01 02:54:15
  TRACK 82 AUDIO
    TITLE "0:"
    INDEX 01 03:00:45
  TRACK 83 AUDIO
    TITLE "7:cjc099_367"
    INDEX 01 03:02:13
  TRACK 84 AUDIO
    TITLE "0:"
    INDEX 01 03:03:42
  TRACK 85 AUDIO
    TITLE "6:cjc099_368"
    INDEX 01 03:03:61
  TRACK 86 AUDIO
    TITLE "0:"
    INDEX 01 03:09:03
  TRACK 87 AUDIO
    TITLE "5:cjc099_369"
    INDEX 01 03:09:46
  TRACK 88 AUDIO
    TITLE "0:"
    INDEX 01 03:10:69
  TRACK 89 AUDIO
    TITLE "4:cjc099_370"
    INDEX 01 03:11:14
  TRACK 90 AUDIO
    TITLE "0:"
    INDEX 01 03:16:58
  TRACK 91 AUDIO
    TITLE "7:cjc099_371"
    INDEX 01 03:18:28
  TRACK 92 AUDIO
    TITLE "0:"
    INDEX 01 03:19:60
  TRACK 93 AUDIO
    TITLE "6:cjc099_372"
    INDEX 01 03:20:09
  TRACK 94 AUDIO
    TITLE "0:"
    INDEX 01 03:25:41
  TRACK 95 AUDIO
    TITLE "5:cjc099_373"
    INDEX 01 03:26:06
  TRACK 96 AUDIO
    TITLE "0:"
    INDEX 01 03:27:36
  TRACK 97 AUDIO
    TITLE "4:cjc099_374"
    INDEX 01 03:27:48
  TRACK 98 AUDIO
    TITLE "0:"
    INDEX 01 03:33:11
  TRACK 99 AUDIO
    TITLE "7:cjc099_375"
    INDEX 01 03:34:56
  TRACK 100 AUDIO
    TITLE "0:"
    INDEX 01 03:36:25
  TRACK 101 AUDIO
    TITLE "6:cjc099_376"
    INDEX 01 03:36:37
  TRACK 102 AUDIO
    TITLE "0:"
    INDEX 01 03:42:50
  TRACK 103 AUDIO
    TITLE "5:cjc099_377"
    INDEX 01 03:43:20
  TRACK 104 AUDIO
    TITLE "0:"
    INDEX 01 03:44:60
  TRACK 105 AUDIO
    TITLE "4:cjc099_378"
    INDEX 01 03:45:01
  TRACK 106 AUDIO
    TITLE "0:"
    INDEX 01 03:51:37
  TRACK 107 AUDIO
    TITLE "7:cjc099_379"
    INDEX 01 03:53:04
  TRACK 108 AUDIO
    TITLE "0:"
    INDEX 01 03:54:43
  TRACK 109 AUDIO
    TITLE "6:cjc099_380"
    INDEX 01 03:54:61
  TRACK 110 AUDIO
    TITLE "0:"
    INDEX 01 04:00:69
  TRACK 111 AUDIO
    TITLE "5:cjc099_381"
    INDEX 01 04:01:39
  TRACK 112 AUDIO
    TITLE "0:"
    INDEX 01 04:03:07
  TRACK 113 AUDIO
    TITLE "4:cjc099_382"
    INDEX 01 04:03:26
  TRACK 114 AUDIO
    TITLE "0:"
    INDEX 01 04:10:26
  TRACK 115 AUDIO
    TITLE "7:cjc099_383"
    INDEX 01 04:11:71
  TRACK 116 AUDIO
    TITLE "0:"
    INDEX 01 04:13:36
  TRACK 117 AUDIO
    TITLE "6:cjc099_384"
    INDEX 01 04:13:56
  TRACK 118 AUDIO
    TITLE "0:"
    INDEX 01 04:20:38
  TRACK 119 AUDIO
    TITLE "5:cjc099_385"
    INDEX 01 04:21:09
  TRACK 120 AUDIO
    TITLE "0:"
    INDEX 01 04:22:49
  TRACK 121 AUDIO
    TITLE "4:cjc099_386"
    INDEX 01 04:22:71
  TRACK 122 AUDIO
    TITLE "0:"
    INDEX 01 04:29:57
  TRACK 123 AUDIO
    TITLE "7:cjc099_387"
    INDEX 01 04:31:25
  TRACK 124 AUDIO
    TITLE "0:"
    INDEX 01 04:32:61
  TRACK 125 AUDIO
    TITLE "6:cjc099_388"
    INDEX 01 04:33:06
  TRACK 126 AUDIO
    TITLE "0:"
    INDEX 01 04:41:70
  TRACK 127 AUDIO
    TITLE "5:cjc099_389"
    INDEX 01 04:42:34
  TRACK 128 AUDIO
    TITLE "0:"
    INDEX 01 04:44:04
  TRACK 129 AUDIO
    TITLE "4:cjc099_390"
    INDEX 01 04:44:19
  TRACK 130 AUDIO
    TITLE "0:"
    INDEX 01 04:53:56
  TRACK 131 AUDIO
    TITLE "7:cjc099_391"
    INDEX 01 04:55:21
  TRACK 132 AUDIO
    TITLE "0:"
    INDEX 01 04:56:66
  TRACK 133 AUDIO
    TITLE "6:cjc099_392"
    INDEX 01 04:57:06
  TRACK 134 AUDIO
    TITLE "0:"
    INDEX 01 05:01:67
  TRACK 135 AUDIO
    TITLE "5:cjc099_393"
    INDEX 01 05:02:37
  TRACK 136 AUDIO
    TITLE "0:"
    INDEX 01 05:04:06
  TRACK 137 AUDIO
    TITLE "4:cjc099_394"
    INDEX 01 05:04:26
  TRACK 138 AUDIO
    TITLE "0:"
    INDEX 01 05:09:08
  TRACK 139 AUDIO
    TITLE "7:cjc099_395"
    INDEX 01 05:10:50
  TRACK 140 AUDIO
    TITLE "0:"
    INDEX 01 05:12:12
  TRACK 141 AUDIO
    TITLE "6:cjc099_396"
    INDEX 01 05:12:27
  TRACK 142 AUDIO
    TITLE "0:"
    INDEX 01 05:22:16
  TRACK 143 AUDIO
    TITLE "5:cjc099_397"
    INDEX 01 05:22:57
  TRACK 144 AUDIO
    TITLE "0:"
    INDEX 01 05:24:27
  TRACK 145 AUDIO
    TITLE "4:cjc099_398"
    INDEX 01 05:24:46
  TRACK 146 AUDIO
    TITLE "0:"
    INDEX 01 05:34:45
  TRACK 147 AUDIO
    TITLE "7:cjc099_399"
    INDEX 01 05:36:16
  TRACK 148 AUDIO
    TITLE "0:"
    INDEX 01 05:37:49
  TRACK 149 AUDIO
    TITLE "6:cjc099_400"
    INDEX 01 05:37:63
  TRACK 150 AUDIO
    TITLE "0:"
    INDEX 01 05:45:39
  TRACK 151 AUDIO
    TITLE "5:cjc099_401"
    INDEX 01 05:46:09
  TRACK 152 AUDIO
    TITLE "0:"
    INDEX 01 05:47:45
  TRACK 153 AUDIO
    TITLE "4:cjc099_402"
    INDEX 01 05:47:67
  TRACK 154 AUDIO
    TITLE "0:"
    INDEX 01 05:56:03
  TRACK 155 AUDIO
    TITLE "7:cjc099_403"
    INDEX 01 05:57:46
  TRACK 156 AUDIO
    TITLE "0:"
    INDEX 01 05:58:73
  TRACK 157 AUDIO
    TITLE "6:cjc099_404"
    INDEX 01 05:59:19
  TRACK 158 AUDIO
    TITLE "0:"
    INDEX 01 06:03:60
  TRACK 159 AUDIO
    TITLE "5:cjc099_405"
    INDEX 01 06:04:32
  TRACK 160 AUDIO
    TITLE "0:"
    INDEX 01 06:05:57
  TRACK 161 AUDIO
    TITLE "4:cjc099_406"
    INDEX 01 06:06:02
  TRACK 162 AUDIO
    TITLE "0:"
    INDEX 01 06:10:66
  TRACK 163 AUDIO
    TITLE "7:cjc099_407"
    INDEX 01 06:12:32
  TRACK 164 AUDIO
    TITLE "0:"
    INDEX 01 06:13:72
  TRACK 165 AUDIO
    TITLE "6:cjc099_408"
    INDEX 01 06:14:19
  TRACK 166 AUDIO
    TITLE "0:"
    INDEX 01 06:23:04
  TRACK 167 AUDIO
    TITLE "5:cjc099_409"
    INDEX 01 06:23:49
  TRACK 168 AUDIO
    TITLE "0:"
    INDEX 01 06:25:15
  TRACK 169 AUDIO
    TITLE "4:cjc099_410"
    INDEX 01 06:25:34
  TRACK 170 AUDIO
    TITLE "0:"
    INDEX 01 06:34:00
  TRACK 171 AUDIO
    TITLE "7:cjc099_411"
    INDEX 01 06:35:40
  TRACK 172 AUDIO
    TITLE "0:"
    INDEX 01 06:37:00
  TRACK 173 AUDIO
    TITLE "6:cjc099_412"
    INDEX 01 06:37:16
  TRACK 174 AUDIO
    TITLE "0:"
    INDEX 01 06:45:02
  TRACK 175 AUDIO
    TITLE "5:cjc099_413"
    INDEX 01 06:45:58
  TRACK 176 AUDIO
    TITLE "0:"
    INDEX 01 06:47:18
  TRACK 177 AUDIO
    TITLE "4:cjc099_414"
    INDEX 01 06:47:36
  TRACK 178 AUDIO
    TITLE "0:"
    INDEX 01 06:55:12
  TRACK 179 AUDIO
    TITLE "7:cjc099_415"
    INDEX 01 06:56:56
  TRACK 180 AUDIO
    TITLE "0:"
    INDEX 01 06:58:24
  TRACK 181 AUDIO
    TITLE "6:cjc099_416"
    INDEX 01 06:58:43
  TRACK 182 AUDIO
    TITLE "0:"
    INDEX 01 07:05:22
  TRACK 183 AUDIO
    TITLE "5:cjc099_417"
    INDEX 01 07:05:65
  TRACK 184 AUDIO
    TITLE "0:"
    INDEX 01 07:07:39
  TRACK 185 AUDIO
    TITLE "4:cjc099_418"
    INDEX 01 07:07:54
  TRACK 186 AUDIO
    TITLE "0:"
    INDEX 01 07:14:60
  TRACK 187 AUDIO
    TITLE "7:cjc099_419"
    INDEX 01 07:16:28
  TRACK 188 AUDIO
    TITLE "0:"
    INDEX 01 07:17:70
  TRACK 189 AUDIO
    TITLE "6:cjc099_420"
    INDEX 01 07:18:11
  TRACK 190 AUDIO
    TITLE "0:"
    INDEX 01 07:24:21
  TRACK 191 AUDIO
    TITLE "5:cjc099_421"
    INDEX 01 07:24:62
  TRACK 192 AUDIO
    TITLE "0:"
    INDEX 01 07:26:30
  TRACK 193 AUDIO
    TITLE "4:cjc099_422"
    INDEX 01 07:26:50
  TRACK 194 AUDIO
    TITLE "0:"
    INDEX 01 07:32:54
  TRACK 195 AUDIO
    TITLE "7:cjc099_423"
    INDEX 01 07:34:12
  TRACK 196 AUDIO
    TITLE "0:"
    INDEX 01 07:35:60
  TRACK 197 AUDIO
    TITLE "6:cjc099_424"
    INDEX 01 07:35:74
  TRACK 198 AUDIO
    TITLE "0:"
    INDEX 01 07:43:54
  TRACK 199 AUDIO
    TITLE "5:cjc099_425"
    INDEX 01 07:44:18
  TRACK 200 AUDIO
    TITLE "0:"
    INDEX 01 07:45:67
  TRACK 201 AUDIO
    TITLE "4:cjc099_426"
    INDEX 01 07:46:13
  TRACK 202 AUDIO
    TITLE "0:"
    INDEX 01 07:54:15
  TRACK 203 AUDIO
    TITLE "7:cjc099_427"
    INDEX 01 07:55:53
  TRACK 204 AUDIO
    TITLE "0:"
    INDEX 01 07:57:33
  TRACK 205 AUDIO
    TITLE "6:cjc099_428"
    INDEX 01 07:57:48
  TRACK 206 AUDIO
    TITLE "0:"
    INDEX 01 08:02:73
  TRACK 207 AUDIO
    TITLE "5:cjc099_429"
    INDEX 01 08:03:41
  TRACK 208 AUDIO
    TITLE "0:"
    INDEX 01 08:05:18
  TRACK 209 AUDIO
    TITLE "4:cjc099_430"
    INDEX 01 08:05:34
  TRACK 210 AUDIO
    TITLE "0:"
    INDEX 01 08:10:27
